<svg width="1650" height="1650" viewBox="0 0 1650 1650" fill="none" xmlns="http://www.w3.org/2000/svg">
<path d="M893.4 733.117L818 845.038L742.5 733.117H712.2C712.2 733.117 712.1 783.911 712.1 806.208C712.1 829.702 712.1 876.798 712.1 876.798V883.651H718.5C718.5 883.651 736.4 883.651 745.3 883.651C745.3 850.042 745.3 795.332 745.3 795.332C745.3 795.332 785.2 851.02 804.5 883.216H811.1H824.6H831.2C850.5 851.02 890.4 795.332 890.4 795.332C890.4 795.332 890.4 850.042 890.4 883.651C899.3 883.651 917.2 883.651 917.2 883.651H923.6V876.798C923.6 876.798 923.6 829.811 923.6 806.208C923.6 783.911 923.5 733.117 923.5 733.117H893.4ZM658.6 733.117C658.6 764.659 658.6 806.643 658.6 838.186C658.6 851.564 656.1 854.175 643.8 854.283C611.8 854.283 575.8 854.283 543.8 854.283C541.9 854.283 539.9 854.175 538 853.957C532.5 853.196 529.7 850.042 529.2 844.059C529.1 842.428 529.1 840.796 529.1 839.274C529.1 807.405 529.1 765.094 529.1 733.225H496C496 766.291 496 809.689 496 842.754C496 845.582 496.1 848.41 496.3 851.238C497.5 867.553 506.2 878.756 520.9 882.128C525.2 883.107 529.7 883.542 534.1 883.542C553.2 883.651 572.4 883.651 591.5 883.651C610.6 883.651 633.7 883.651 652.9 883.651C656.5 883.651 660.2 883.433 663.8 882.889C677 880.714 686.4 873.318 689.9 858.852C690.9 854.61 691.5 850.042 691.5 845.691C691.6 811.647 691.6 767.27 691.6 733.334H658.6V733.117ZM342.6 854.283C342.6 854.283 342.6 768.14 342.6 733.117H309.5C309.5 777.82 309.5 833.618 309.5 878.321C309.5 880.496 309.5 883.542 309.5 883.542C309.5 883.542 330.9 883.542 339.1 883.542C384.9 883.542 437.5 883.542 483.3 883.542V854.175C440.3 854.283 342.6 854.283 342.6 854.283ZM1117.8 734.422C1113.5 733.117 1108.8 732.573 1104.3 732.573C1084.5 732.355 1061.3 732.464 1041.4 732.464C1021.7 732.464 1002 732.355 982.3 732.464C978.5 732.464 974.5 732.79 970.8 733.661C955.1 737.685 945.9 750.954 945.6 770.424C945.3 795.658 945.5 820.892 945.5 846.235C945.5 854.283 947.1 862.006 951.4 868.749C958.7 880.17 969.2 884.303 981.5 884.303C1021.4 884.303 1064.6 884.303 1104.5 884.303C1105.9 884.303 1107.2 884.303 1108.6 884.194C1126.6 883.216 1140.2 869.076 1140.5 849.498C1140.9 822.197 1140.9 794.788 1140.5 767.378C1140.5 751.498 1131.3 738.555 1117.8 734.422ZM1051.4 859.395C1049 859.939 1046.3 859.613 1043.8 860.048C1026.5 859.722 1012.4 843.733 1011 825.569C1010.5 818.608 1011.9 812.082 1015.2 806.1C1022.8 792.395 1039 760.526 1039.7 759.547C1042.5 755.305 1045.2 755.305 1047.9 759.547C1049.3 761.614 1064.5 792.721 1071.5 804.468C1084.7 826.33 1072.4 854.283 1051.4 859.395ZM1308.5 837.751L1189.1 733.117H1157.2V883.542H1189.1V778.255C1218.2 803.707 1308.5 883.542 1308.5 883.542H1340.4V733.117H1308.5V837.751ZM1329.6 537.771C1199.6 467.181 1028.7 427.045 846.3 424.109C845.8 424.109 845.4 424.109 844.9 424.109C842.6 424 840.4 424 838.1 424C837.3 424 836.6 424 835.8 424C834.2 424 832.6 424 831 424C830.1 424 829.2 424 828.3 424C827 424 825.7 424 824.4 424C633.9 424 454.5 464.461 319.3 537.879C180.5 613.255 104 715.061 104 824.481C104 933.901 180.5 1035.71 319.4 1111.19C454.6 1184.61 634 1225.07 824.5 1225.07C825.8 1225.07 827.1 1225.07 828.4 1225.07C829.3 1225.07 830.2 1225.07 831.1 1225.07C832.7 1225.07 834.3 1225.07 835.9 1225.07C836.7 1225.07 837.4 1225.07 838.2 1225.07C840.5 1225.07 842.7 1224.96 845 1224.96C845.5 1224.96 845.9 1224.96 846.4 1224.96C1028.8 1222.03 1199.7 1181.89 1329.7 1111.3C1468.6 1035.82 1545.1 934.01 1545.1 824.59C1545 715.061 1468.5 613.255 1329.6 537.771ZM1341.1 565.071H1215.5C1206 556.152 1196 547.56 1185.4 539.293C1144 506.772 1096.6 480.668 1045.3 461.525C1159.7 482.082 1261.1 518.084 1341.1 565.071ZM1188.7 565.071H1025C1021.3 557.893 1017.5 550.931 1013.5 544.188C988.2 501.66 958 469.682 925 449.452C1028.3 465.332 1120 506.772 1188.7 565.071ZM834.8 442.382C838.1 442.382 841.4 442.382 844.7 442.49C908.3 445.536 965.3 492.088 1005.6 565.071H670.7C711.7 490.892 770 444.013 834.8 442.382ZM662.7 544.188C658.7 550.931 654.9 557.893 651.2 565.071H473.4C546.2 503.291 644.6 460.437 755.4 446.841C720.8 467.072 689.1 499.92 662.7 544.188ZM628.5 457.392C572.7 476.861 521.3 504.379 476.8 539.293C466.2 547.56 456.2 556.152 446.7 565.071H307.9C393.6 514.821 503.9 476.97 628.5 457.392ZM284.8 1069.64H432.1C445.8 1083.67 460.7 1097.05 476.7 1109.67C521.2 1144.58 572.6 1172.21 628.4 1191.57C492.4 1170.14 373.4 1127.07 284.8 1069.64ZM457.5 1069.64H644.1C649.9 1081.82 656.1 1093.57 662.7 1104.77C689.1 1149.04 720.8 1182 755.5 1202.12C636.3 1187.44 531.5 1139.04 457.5 1069.64ZM844.6 1206.47C841.3 1206.47 838 1206.58 834.7 1206.58C765.8 1204.95 704.4 1151.98 663.2 1069.64H1012.8C972.4 1150.78 912.2 1203.32 844.6 1206.47ZM1013.5 1104.77C1020.2 1093.57 1026.4 1081.82 1032.1 1069.64H1204.6C1134.4 1135.45 1036.5 1182.43 924.9 1199.51C958 1179.17 988.2 1147.19 1013.5 1104.77ZM1045.3 1187.44C1096.6 1168.29 1144 1142.19 1185.4 1109.67C1201.5 1097.05 1216.4 1083.67 1230 1069.64H1364.2C1281 1123.59 1171 1164.81 1045.3 1187.44ZM1396.9 1046.69H1250.8C1267.7 1026.46 1282.4 1005.03 1294.5 982.52C1300.7 970.991 1306.2 959.244 1311 947.388H1292.4C1276.9 983.173 1254.9 1016.56 1227.4 1046.69H1042.2C1054.7 1015.91 1064.5 982.52 1071.3 947.388H1054C1046.8 983.173 1036.4 1016.56 1023.5 1046.69H652.7C639.8 1016.56 629.5 983.173 622.2 947.388H604.9C611.7 982.52 621.5 1015.8 634 1046.69H434.9C407.4 1016.56 385.3 983.173 369.8 947.388H351.2C356 959.244 361.5 970.991 367.7 982.52C379.9 1005.03 394.5 1026.46 411.4 1046.69H252.1C169.6 984.043 120.9 907.362 120.9 824.481C120.9 735.183 177.3 653.064 271.7 588.021H423.8C401.4 612.276 382.6 638.489 367.6 666.442C365.6 670.249 363.6 674.056 361.8 677.863H381.2C398.4 645.45 421.1 615.322 448.4 588.13H640C627.6 615.974 617.5 646.103 610 677.863H627.6C635.6 645.45 646.2 615.322 659 588.13H1017.1C1029.9 615.322 1040.5 645.45 1048.5 677.863H1066.1C1058.5 646.103 1048.5 615.866 1036.1 588.13H1213.7C1241 615.322 1263.7 645.45 1280.9 677.863H1300.3C1298.4 674.056 1296.5 670.249 1294.5 666.442C1279.5 638.489 1260.6 612.276 1238.3 588.021H1377.3C1471.8 653.064 1528.1 735.183 1528.1 824.481C1528.1 907.362 1479.4 984.043 1396.9 1046.69Z" fill="#C2FFFE"/>
</svg>
